<?xml version="1.0" standalone="no"?>
<!DOCTYPE svg PUBLIC "-//W3C//DTD SVG 20010904//EN"
 "http://www.w3.org/TR/2001/REC-SVG-20010904/DTD/svg10.dtd">
<svg version="1.0" xmlns="http://www.w3.org/2000/svg"
 width="2085.000000pt" height="2085.000000pt" viewBox="0 0 2085.000000 2085.000000"
 preserveAspectRatio="xMidYMid meet">
<metadata>
Created by potrace 1.11, written by Peter Selinger 2001-2013
</metadata>
<g transform="translate(0.000000,2085.000000) scale(0.100000,-0.100000)"
fill="#000000" stroke="none">
<path d="M6388 20768 c-155 -233 -292 -492 -388 -734 -30 -73 -116 -330 -125
-367 -2 -12 -11 -49 -20 -82 -27 -106 -57 -239 -61 -270 -2 -16 -8 -52 -14
-80 -5 -27 -12 -72 -15 -100 -3 -27 -8 -61 -10 -75 -3 -14 -7 -52 -10 -85 -3
-33 -8 -73 -10 -90 -18 -145 -22 -450 -11 -930 25 -1079 40 -2205 51 -3895 10
-1500 13 -2140 10 -2140 -6 0 -83 33 -155 67 -41 19 -115 53 -165 75 -49 23
-132 60 -184 84 -51 24 -95 44 -97 44 -1 0 -40 17 -86 39 -99 46 -188 87 -243
111 -55 24 -150 67 -210 95 -153 72 -708 318 -890 395 -55 23 -118 50 -140 60
-68 30 -663 275 -800 330 -71 28 -143 57 -160 65 -16 7 -88 36 -160 64 -71 29
-139 56 -150 61 -11 5 -78 32 -150 60 -71 28 -139 55 -150 60 -55 25 -905 364
-933 372 -119 33 -197 1 -240 -101 -23 -54 -32 -94 -72 -336 -16 -99 -32 -191
-35 -205 -35 -175 -36 -184 -33 -855 l3 -660 48 -178 c59 -220 97 -327 141
-392 27 -41 260 -321 374 -450 15 -17 56 -64 92 -105 36 -41 81 -93 102 -115
20 -22 80 -89 134 -150 186 -209 303 -337 475 -519 42 -45 87 -93 100 -108
140 -152 304 -318 353 -355 149 -112 318 -158 511 -141 125 11 198 33 530 155
171 63 371 137 445 164 74 28 142 53 150 56 8 3 17 7 20 8 3 1 12 5 20 8 8 3
83 31 165 62 83 30 159 59 170 64 11 5 124 48 250 96 127 48 236 92 243 98 6
5 12 7 12 4 0 -3 19 2 43 13 23 10 101 43 172 73 72 30 156 67 187 81 31 14
59 26 62 26 2 0 33 13 68 29 155 71 180 81 187 77 4 -3 8 -315 8 -693 0 -378
4 -731 8 -783 5 -52 8 -108 8 -125 0 -35 -11 -171 -17 -200 -9 -46 -19 -283
-20 -445 0 -167 11 -457 18 -469 2 -3 7 -40 11 -81 4 -41 9 -83 11 -94 2 -10
6 -44 9 -75 4 -31 8 -63 10 -71 3 -8 7 -33 10 -55 10 -64 55 -283 77 -370 11
-44 23 -96 28 -115 5 -19 16 -60 25 -90 9 -30 18 -64 20 -75 12 -54 141 -436
165 -490 5 -11 27 -65 49 -120 66 -169 139 -331 247 -550 106 -215 127 -257
276 -525 169 -305 397 -726 528 -975 29 -55 65 -122 80 -150 15 -27 58 -108
95 -180 37 -71 80 -152 95 -180 15 -27 74 -140 131 -250 56 -110 129 -249 160
-310 32 -60 97 -186 145 -280 47 -93 120 -235 161 -315 119 -230 307 -594 528
-1025 54 -104 119 -230 145 -280 26 -49 91 -175 145 -280 146 -282 154 -296
261 -452 l99 -143 1108 2 1109 3 22 40 c11 22 24 41 29 43 4 2 7 7 7 11 0 7
20 42 120 216 10 17 73 124 140 240 68 116 134 230 148 255 14 25 33 57 43 72
11 14 19 28 19 31 0 3 38 69 84 148 138 237 333 590 458 829 158 301 241 465
713 1405 514 1025 831 1651 845 1670 4 6 46 84 93 175 47 91 97 188 112 215
15 28 50 93 77 145 28 52 54 100 58 105 4 6 40 73 78 150 88 175 185 407 246
589 49 147 130 449 140 528 4 26 8 53 11 60 2 7 7 30 10 51 9 66 16 111 21
137 2 14 6 52 10 85 3 33 7 71 10 85 12 76 18 286 15 520 -3 146 -4 459 -3
695 3 1650 4 1756 15 1752 38 -16 302 -133 355 -158 35 -16 69 -29 76 -29 6 0
16 -4 22 -8 12 -12 538 -226 579 -236 6 -2 24 -9 40 -15 33 -14 487 -185 549
-208 22 -8 110 -40 195 -73 86 -32 208 -77 271 -100 63 -24 151 -56 195 -72
285 -105 382 -129 520 -129 162 0 301 44 429 135 51 36 199 184 391 391 21 22
67 72 104 111 170 181 321 347 491 539 73 83 149 168 169 190 45 49 310 359
407 475 116 139 137 185 221 490 l48 175 3 665 c2 581 1 677 -14 760 -9 52
-18 104 -19 115 -2 11 -13 67 -24 125 -11 58 -22 121 -25 140 -14 100 -19 137
-22 154 -31 170 -122 247 -254 213 -36 -9 -141 -48 -195 -72 -16 -7 -210 -85
-430 -173 -682 -273 -979 -392 -1000 -402 -11 -5 -45 -19 -75 -30 -30 -11 -64
-25 -75 -30 -11 -5 -60 -25 -110 -45 -49 -20 -99 -40 -110 -45 -11 -5 -87 -37
-170 -71 -150 -61 -436 -182 -524 -220 -25 -11 -55 -24 -66 -28 -11 -5 -40
-18 -65 -29 -25 -11 -97 -43 -160 -70 -113 -49 -355 -157 -474 -212 -34 -15
-182 -83 -331 -150 -148 -67 -304 -138 -345 -157 -41 -19 -113 -52 -160 -73
-47 -21 -121 -54 -165 -75 -79 -37 -124 -57 -209 -94 l-44 -19 3 531 c2 293 6
813 10 1157 3 344 8 1039 10 1545 5 935 12 1730 20 2065 15 656 19 808 31
1085 12 297 8 597 -11 718 -2 12 -6 49 -10 82 -13 122 -68 383 -111 525 -114
376 -269 711 -497 1070 -44 69 -86 133 -95 143 -12 14 -32 17 -97 17 l-83 0
-11 -57 c-5 -32 -13 -69 -16 -83 -3 -14 -8 -38 -10 -55 -3 -16 -8 -37 -10 -45
-2 -8 -7 -28 -10 -45 -5 -33 -6 -38 -35 -180 -28 -138 -29 -146 -36 -180 -3
-16 -9 -48 -14 -70 -5 -22 -11 -53 -14 -70 -3 -16 -35 -176 -72 -355 -36 -179
-68 -336 -70 -350 -3 -14 -7 -32 -9 -40 -2 -8 -7 -31 -10 -50 -3 -19 -13 -69
-21 -110 -24 -112 -24 -113 -29 -140 -3 -14 -7 -38 -10 -55 -3 -16 -8 -37 -10
-45 -2 -8 -7 -28 -9 -45 -3 -16 -31 -156 -62 -310 -31 -154 -58 -291 -61 -305
-9 -47 -44 -225 -48 -240 -2 -8 -19 -96 -39 -195 -49 -251 -165 -827 -171
-845 -2 -8 -6 -31 -9 -50 -3 -19 -12 -69 -21 -110 -9 -41 -19 -86 -21 -100 -3
-14 -16 -79 -29 -145 -13 -66 -26 -131 -29 -145 -2 -14 -12 -61 -20 -105 -9
-44 -18 -91 -21 -105 -3 -14 -12 -59 -20 -100 -8 -41 -17 -84 -19 -95 -3 -11
-21 -103 -41 -205 -20 -102 -38 -192 -40 -200 -9 -41 -35 -168 -39 -190 -2
-14 -11 -56 -19 -95 -9 -38 -18 -83 -20 -100 -3 -16 -17 -86 -31 -155 -14 -69
-27 -136 -30 -150 -2 -14 -11 -59 -20 -100 -8 -41 -17 -86 -20 -100 -2 -14 -7
-36 -10 -50 -3 -14 -8 -36 -10 -50 -3 -14 -66 -331 -141 -705 -75 -374 -139
-691 -141 -705 -3 -14 -14 -68 -25 -120 -11 -52 -22 -106 -24 -120 -3 -14 -7
-36 -10 -50 -3 -14 -7 -36 -10 -50 -2 -14 -34 -172 -70 -350 -36 -179 -67
-336 -70 -350 -3 -14 -7 -37 -10 -52 -3 -15 -35 -173 -70 -350 -64 -319 -69
-344 -81 -403 -3 -16 -9 -49 -15 -73 -5 -23 -12 -59 -15 -80 -3 -20 -8 -40
-10 -43 -2 -4 -6 -24 -10 -45 -3 -22 -14 -79 -24 -129 -11 -49 -22 -103 -25
-120 -2 -16 -7 -39 -9 -50 -2 -11 -77 -384 -166 -830 -89 -445 -163 -817 -165
-826 -2 -9 -6 -32 -9 -50 -3 -19 -30 -158 -61 -309 -30 -151 -57 -284 -59
-295 -2 -11 -15 -78 -29 -150 -15 -71 -29 -146 -32 -165 -3 -19 -10 -53 -15
-75 -5 -22 -12 -56 -15 -75 -3 -19 -8 -42 -10 -50 -2 -8 -6 -27 -9 -42 -3 -15
-18 -96 -35 -180 -17 -84 -32 -164 -35 -178 -2 -14 -25 -131 -51 -260 -25
-129 -51 -257 -56 -285 -5 -27 -11 -59 -13 -70 -11 -53 -48 -243 -52 -265 -3
-14 -12 -59 -21 -100 -8 -41 -17 -86 -19 -100 -6 -28 -71 -362 -114 -580 -16
-80 -32 -161 -35 -180 -3 -19 -8 -42 -11 -51 -2 -9 -11 -52 -19 -95 -19 -107
-23 -127 -41 -214 -9 -41 -18 -86 -20 -100 -3 -14 -19 -95 -36 -180 -16 -85
-31 -162 -33 -170 -2 -8 -22 -109 -45 -225 -23 -115 -44 -221 -46 -235 -2 -14
-9 -47 -15 -75 -6 -27 -13 -61 -15 -75 -2 -14 -11 -54 -18 -90 -8 -36 -17 -81
-20 -100 -3 -19 -13 -66 -21 -105 -9 -38 -20 -92 -25 -120 -4 -27 -13 -70 -19
-95 -5 -25 -12 -56 -15 -70 -4 -24 -74 -359 -81 -390 -2 -8 -8 -35 -14 -60 -5
-25 -12 -58 -15 -75 -3 -16 -8 -41 -11 -55 -6 -26 -12 -51 -19 -85 -3 -11 -12
-51 -20 -90 -9 -38 -25 -110 -36 -160 -10 -49 -38 -169 -60 -265 -23 -96 -43
-183 -45 -193 -2 -10 -6 -26 -9 -35 -3 -9 -8 -30 -11 -47 -3 -16 -25 -108 -49
-204 l-43 -174 -11 49 c-17 71 -61 292 -68 339 -3 22 -8 43 -10 46 -2 4 -6 24
-9 45 -3 22 -10 57 -15 79 -8 32 -187 935 -203 1025 -3 14 -13 63 -22 110 -9
47 -18 92 -20 100 -4 30 -20 110 -30 152 -3 13 -8 37 -11 53 -3 17 -18 95 -34
175 -16 80 -32 159 -34 175 -3 17 -17 86 -31 155 -14 69 -28 136 -30 150 -3
14 -20 104 -39 200 -19 96 -37 186 -40 200 -2 14 -18 94 -35 179 -17 85 -34
168 -37 185 -2 17 -7 38 -9 46 -2 8 -7 31 -10 50 -3 19 -8 42 -10 50 -2 8 -7
31 -10 50 -3 19 -10 53 -15 75 -5 22 -12 56 -15 75 -3 19 -8 42 -10 50 -2 8
-7 31 -10 50 -5 28 -52 267 -110 560 -3 14 -8 39 -10 55 -3 17 -8 37 -10 45
-2 8 -7 31 -10 50 -3 19 -33 168 -65 330 -32 162 -62 311 -65 330 -3 19 -17
89 -31 155 -14 66 -27 136 -30 155 -3 19 -9 51 -14 70 -5 19 -12 51 -15 70
-10 60 -55 293 -65 335 -8 34 -20 97 -44 225 -3 14 -17 84 -31 155 -14 72 -28
141 -31 155 -3 14 -18 90 -34 170 -16 80 -36 181 -44 225 -9 44 -25 125 -36
180 -11 55 -23 114 -25 130 -3 17 -8 37 -10 45 -2 8 -7 29 -10 45 -2 17 -21
111 -41 210 -19 99 -38 196 -40 215 -3 19 -7 41 -10 49 -4 11 -92 450 -110
551 -7 34 -43 219 -49 250 -3 14 -14 70 -25 125 -11 55 -22 111 -25 125 -5 23
-30 150 -41 210 -3 14 -18 90 -34 170 -16 80 -31 156 -34 170 -2 14 -20 104
-39 200 -64 317 -109 545 -114 575 -2 17 -8 46 -13 65 -5 19 -12 50 -15 68 -3
18 -62 315 -131 660 -69 345 -127 638 -130 652 -3 14 -14 70 -25 125 -11 55
-22 111 -25 125 -2 14 -7 36 -10 50 -3 14 -8 36 -10 50 -3 14 -16 81 -30 150
-14 69 -28 136 -30 150 -2 14 -7 36 -10 50 -3 14 -8 36 -10 50 -3 14 -11 55
-19 92 -8 36 -17 83 -21 105 -3 21 -9 54 -14 73 -5 19 -11 49 -14 65 -3 17
-10 50 -15 75 -5 25 -25 128 -45 230 -20 102 -41 203 -46 225 -6 22 -12 54
-15 70 -3 17 -45 230 -95 475 -96 473 -156 769 -164 810 -8 41 -29 142 -41
200 -3 14 -8 39 -10 56 -2 16 -11 59 -19 95 -8 35 -17 75 -19 89 -15 82 -69
351 -77 380 -5 19 -12 51 -15 70 -3 19 -25 132 -50 250 -35 173 -76 377 -100
499 -2 9 -12 61 -24 116 -11 55 -22 111 -25 125 -5 26 -22 111 -30 145 -6 29
-116 575 -122 605 -2 14 -11 57 -20 95 -8 39 -16 79 -18 90 -4 18 -72 350 -82
400 -3 11 -11 52 -19 90 -8 39 -17 81 -19 95 -3 14 -29 138 -57 275 -28 138
-52 257 -54 265 -12 56 -68 328 -70 340 -1 12 -20 16 -87 18 l-85 3 -55 -83z
m7658 -10670 c-4 -95 -9 -209 -11 -253 -4 -75 -12 -297 -20 -530 -9 -263 -16
-449 -20 -545 -16 -374 -35 -758 -40 -810 -2 -19 -6 -87 -10 -150 -4 -63 -8
-131 -10 -150 -2 -19 -6 -84 -10 -145 -4 -60 -9 -118 -10 -127 -2 -10 -6 -57
-10 -105 -3 -49 -7 -99 -10 -113 -2 -14 -7 -59 -11 -100 -3 -41 -8 -86 -9
-100 -2 -14 -6 -54 -10 -90 -4 -36 -9 -74 -11 -85 -2 -10 -6 -37 -9 -60 -10
-65 -71 -272 -101 -340 -7 -16 -25 -59 -39 -95 -31 -75 -164 -342 -271 -545
-92 -173 -169 -329 -499 -1010 -45 -93 -138 -282 -205 -420 -67 -137 -162
-331 -210 -430 -48 -99 -181 -369 -295 -600 -114 -231 -266 -539 -337 -685
-72 -146 -224 -454 -338 -685 -226 -456 -205 -423 -272 -416 -12 1 -10 28 7
95 13 57 130 598 161 746 7 36 15 74 18 85 2 11 18 83 35 160 17 77 44 203 61
280 17 77 35 161 40 186 5 26 23 105 39 177 17 72 32 141 35 154 2 13 14 64
25 113 37 155 51 219 56 244 2 13 13 62 25 110 20 87 87 379 95 416 2 11 13
58 23 105 11 47 34 146 50 220 17 74 49 216 72 315 23 99 44 191 46 205 3 14
16 72 30 130 14 58 28 115 30 127 2 12 45 201 95 420 50 219 98 427 106 463 8
36 16 72 18 80 4 13 29 124 40 174 3 10 25 109 51 220 25 111 55 239 66 286
10 47 21 92 23 100 2 8 10 44 18 80 8 36 19 83 25 105 6 22 13 51 16 65 9 49
57 254 61 259 1 3 6 22 9 41 3 19 10 50 15 68 5 17 7 32 4 32 -3 0 0 7 7 15 7
8 10 15 7 15 -3 0 -1 16 5 36 5 20 11 44 13 53 2 9 17 77 35 151 119 509 151
610 259 825 83 165 80 161 197 340 140 214 346 479 604 776 41 47 95 110 120
139 25 29 62 71 82 94 21 22 38 44 38 49 0 4 3 7 6 7 4 0 3 -78 0 -172z
m-7109 105 c12 -17 109 -157 211 -303 25 -36 73 -103 107 -150 143 -198 416
-612 448 -680 4 -8 26 -46 48 -85 99 -172 219 -440 279 -627 25 -76 78 -292
94 -378 8 -44 76 -358 81 -372 2 -7 6 -26 9 -43 3 -16 7 -41 10 -55 4 -14 8
-34 10 -45 19 -91 250 -1141 271 -1230 8 -33 37 -163 65 -290 28 -126 55 -246
60 -265 5 -19 12 -51 15 -70 3 -19 14 -71 25 -115 49 -211 62 -268 66 -293 3
-15 10 -45 16 -67 9 -37 12 -48 22 -100 2 -11 12 -51 21 -90 22 -93 24 -102
35 -155 5 -25 25 -115 45 -200 41 -173 43 -184 50 -222 3 -14 17 -75 31 -134
14 -59 28 -117 30 -128 8 -40 13 -61 48 -212 19 -83 37 -162 39 -175 3 -13 10
-43 16 -65 6 -23 15 -62 20 -85 5 -24 19 -87 31 -139 12 -52 23 -104 26 -115
2 -11 20 -90 39 -175 107 -462 287 -1254 310 -1365 21 -98 12 -209 -19 -234
-9 -7 -95 158 -333 637 -307 616 -583 1177 -643 1307 -15 33 -87 181 -159 328
-72 148 -131 270 -131 272 0 1 -61 128 -136 281 -75 154 -150 308 -166 344
-25 54 -510 1038 -552 1120 -176 345 -225 457 -296 670 -46 138 -102 350 -114
434 -4 21 -8 41 -10 45 -2 3 -7 35 -11 71 -4 36 -9 68 -11 71 -2 4 -6 38 -9
75 -3 38 -9 80 -12 94 -4 14 -8 687 -10 1495 -2 1176 0 1467 10 1453 6 -9 18
-24 24 -35z"/>
</g>
</svg>
